<svg width="15" height="16" viewBox="0 0 15 16" fill="none" xmlns="http://www.w3.org/2000/svg">
<g clip-path="url(#clip0_1203_23152)">
<path d="M14.1815 7.54672C14.219 7.80922 14.234 8.07922 14.2415 8.35672V8.45422C14.2415 12.1592 11.234 15.1592 7.52902 15.1592C3.82402 15.1592 0.824023 12.1592 0.824023 8.45422C0.824023 4.74922 3.78652 1.78672 7.45402 1.74922H7.52902C7.82152 1.74922 8.10652 1.76422 8.38402 1.80922L7.45402 0.886719C3.32902 0.909219 -0.000976562 4.26172 -0.000976562 8.38672C-0.000976562 12.5117 3.35152 15.8867 7.49902 15.8867C11.6465 15.8867 14.999 12.5267 14.999 8.38672V8.35672L14.1815 7.54672Z" fill="white"/>
<path d="M13.0271 6.40668L9.53212 2.94168C8.90962 2.71668 8.23462 2.59668 7.52962 2.59668H7.45462C4.25962 2.63418 1.67212 5.23668 1.67212 8.45418C1.67212 11.6717 4.29712 14.3192 7.52962 14.3192C10.7621 14.3192 13.3946 11.6942 13.3946 8.45418V8.35668C13.3796 7.67418 13.2521 7.01418 13.0271 6.40668ZM7.59712 12.3017C5.51212 12.3017 3.82462 10.6067 3.82462 8.52168C3.82462 6.43668 5.43712 4.83168 7.45462 4.75668C7.49962 4.74918 7.55212 4.74918 7.59712 4.74918C9.62962 4.74918 11.2871 6.34668 11.3696 8.35668C11.3771 8.40918 11.3771 8.46918 11.3771 8.52168C11.3771 10.6067 9.68962 12.3017 7.59712 12.3017Z" fill="white"/>
<path d="M7.6045 9.67678C8.152 9.67678 8.5945 9.23428 8.5945 8.68678C8.5945 8.13928 8.152 7.69678 7.6045 7.69678C7.057 7.69678 6.6145 8.13928 6.6145 8.68678C6.6145 9.23428 7.057 9.67678 7.6045 9.67678Z" fill="white"/>
<path d="M7.68677 10.2617C8.61875 10.2617 9.37427 9.5062 9.37427 8.57422C9.37427 7.64224 8.61875 6.88672 7.68677 6.88672C6.75479 6.88672 5.99927 7.64224 5.99927 8.57422C5.99927 9.5062 6.75479 10.2617 7.68677 10.2617Z" fill="white"/>
<path d="M15.0003 8.35672H7.45532V0.886719L8.38532 1.80922L9.53282 2.94172L13.0278 6.40672L14.1828 7.54672L15.0003 8.35672Z" fill="white"/>
</g>
<defs>
<clipPath id="clip0_1203_23152">
<rect width="15" height="15" fill="white" transform="translate(0 0.886719)"/>
</clipPath>
</defs>
</svg>
