<svg width="375" height="812" viewBox="0 0 375 812" fill="none" xmlns="http://www.w3.org/2000/svg">
<g clip-path="url(#clip0_6090_167111)">
<rect width="375" height="812" fill="url(#paint0_linear_6090_167111)"/>
<g opacity="0.8">
<path d="M365.819 77.398C367.179 77.398 368.282 78.5009 368.282 79.8614C368.282 81.2219 367.179 82.3242 365.819 82.3242C364.459 82.3242 363.355 81.2214 363.355 79.8614C363.355 78.5015 364.458 77.398 365.819 77.398Z" fill="white" fill-opacity="0.05"/>
<path d="M349.158 79.8612C349.158 89.0629 356.618 96.5225 365.819 96.5225C375.021 96.5225 382.481 89.0629 382.481 79.8612C382.481 70.6595 375.021 63.1994 365.819 63.1994C356.618 63.1994 349.158 70.659 349.158 79.8612ZM376.4 69.2791C379.227 72.1054 380.784 75.8633 380.784 79.8607C380.784 83.858 379.227 87.616 376.4 90.4422C373.574 93.269 369.816 94.8258 365.819 94.8258C361.821 94.8258 358.064 93.269 355.237 90.4422C352.41 87.616 350.854 83.858 350.854 79.8607C350.854 75.8633 352.41 72.1054 355.237 69.2791C358.064 66.4523 361.821 64.8961 365.819 64.8961C369.816 64.8961 373.574 66.4523 376.4 69.2791V69.2791ZM351.707 79.8607C351.707 87.6421 358.038 93.9726 365.819 93.9726C373.6 93.9726 379.931 87.6421 379.931 79.8607C379.931 72.0792 373.6 65.7493 365.819 65.7493C358.037 65.7493 351.707 72.0792 351.707 79.8607ZM374.444 79.8612C374.444 84.6248 370.583 88.4862 365.819 88.4862C361.056 88.4862 357.194 84.6248 357.194 79.8612C357.194 75.0977 361.056 71.2357 365.819 71.2357C370.583 71.2357 374.444 75.0977 374.444 79.8612V79.8612Z" fill="white" fill-opacity="0.05"/>
<path d="M295.196 3.62956L317.275 3.29125L317.613 25.3701L315.181 23.0116L313.797 21.6679L313.796 21.6679L299.017 7.33552L299.014 7.33255L299.014 7.33179L297.627 5.98662L295.196 3.62956Z" fill="white" fill-opacity="0.05"/>
<path d="M247 49.0064C248.36 49.0064 249.463 50.1093 249.463 51.4698C249.463 52.8303 248.36 53.9326 247 53.9326C245.641 53.9326 244.537 52.8298 244.537 51.4698C244.537 50.1099 245.64 49.0064 247 49.0064Z" fill="white" fill-opacity="0.05"/>
<path d="M230.34 51.4696C230.34 60.6713 237.799 68.1309 247.001 68.1309C256.203 68.1309 263.662 60.6713 263.662 51.4696C263.662 42.2679 256.203 34.8078 247.001 34.8078C237.799 34.8078 230.34 42.2674 230.34 51.4696ZM257.582 40.8875C260.409 43.7138 261.966 47.4717 261.966 51.4691C261.966 55.4664 260.409 59.2244 257.582 62.0506C254.756 64.8774 250.998 66.4342 247 66.4342C243.003 66.4342 239.245 64.8774 236.419 62.0506C233.592 59.2244 232.036 55.4664 232.036 51.4691C232.036 47.4717 233.592 43.7138 236.419 40.8875C239.245 38.0607 243.003 36.5045 247 36.5045C250.998 36.5045 254.756 38.0607 257.582 40.8875V40.8875ZM232.889 51.4691C232.889 59.2505 239.22 65.581 247 65.581C254.781 65.581 261.112 59.2505 261.112 51.4691C261.112 43.6876 254.782 37.3577 247 37.3577C239.219 37.3577 232.889 43.6876 232.889 51.4691ZM255.626 51.4696C255.626 56.2332 251.765 60.0946 247.001 60.0946C242.238 60.0946 238.376 56.2332 238.376 51.4696C238.376 46.7061 242.238 42.8441 247.001 42.8441C251.765 42.8441 255.626 46.7061 255.626 51.4696V51.4696Z" fill="white" fill-opacity="0.05"/>
<path d="M365.819 179.744C367.179 179.744 368.282 180.847 368.282 182.207C368.282 183.568 367.179 184.67 365.819 184.67C364.459 184.67 363.355 183.567 363.355 182.207C363.355 180.847 364.458 179.744 365.819 179.744Z" fill="white" fill-opacity="0.05"/>
<path d="M349.158 182.207C349.158 191.409 356.618 198.868 365.819 198.868C375.021 198.868 382.481 191.409 382.481 182.207C382.481 173.005 375.021 165.545 365.819 165.545C356.618 165.545 349.158 173.005 349.158 182.207ZM376.4 171.625C379.227 174.451 380.784 178.209 380.784 182.206C380.784 186.204 379.227 189.962 376.4 192.788C373.574 195.615 369.816 197.171 365.819 197.171C361.821 197.171 358.064 195.615 355.237 192.788C352.41 189.962 350.854 186.204 350.854 182.206C350.854 178.209 352.41 174.451 355.237 171.625C358.064 168.798 361.821 167.242 365.819 167.242C369.816 167.242 373.574 168.798 376.4 171.625V171.625ZM351.707 182.206C351.707 189.988 358.038 196.318 365.819 196.318C373.6 196.318 379.931 189.988 379.931 182.206C379.931 174.425 373.6 168.095 365.819 168.095C358.037 168.095 351.707 174.425 351.707 182.206ZM374.444 182.207C374.444 186.97 370.583 190.832 365.819 190.832C361.056 190.832 357.194 186.97 357.194 182.207C357.194 177.443 361.056 173.581 365.819 173.581C370.583 173.581 374.444 177.443 374.444 182.207V182.207Z" fill="white" fill-opacity="0.05"/>
<path d="M295.196 105.975L317.275 105.637L317.613 127.716L315.181 125.357L313.797 124.014L313.796 124.014L299.017 109.681L299.014 109.678L299.014 109.677L297.627 108.332L295.196 105.975Z" fill="white" fill-opacity="0.05"/>
<path d="M247 151.352C248.36 151.352 249.463 152.455 249.463 153.816C249.463 155.176 248.36 156.278 247 156.278C245.641 156.278 244.537 155.175 244.537 153.816C244.537 152.456 245.64 151.352 247 151.352Z" fill="white" fill-opacity="0.05"/>
<path d="M230.34 153.815C230.34 163.017 237.799 170.477 247.001 170.477C256.203 170.477 263.662 163.017 263.662 153.815C263.662 144.614 256.203 137.154 247.001 137.154C237.799 137.154 230.34 144.613 230.34 153.815ZM257.582 143.233C260.409 146.059 261.966 149.817 261.966 153.815C261.966 157.812 260.409 161.57 257.582 164.396C254.756 167.223 250.998 168.78 247 168.78C243.003 168.78 239.245 167.223 236.419 164.396C233.592 161.57 232.036 157.812 232.036 153.815C232.036 149.817 233.592 146.059 236.419 143.233C239.245 140.406 243.003 138.85 247 138.85C250.998 138.85 254.756 140.406 257.582 143.233V143.233ZM232.889 153.815C232.889 161.596 239.22 167.927 247 167.927C254.781 167.927 261.112 161.596 261.112 153.815C261.112 146.033 254.782 139.703 247 139.703C239.219 139.703 232.889 146.033 232.889 153.815ZM255.626 153.815C255.626 158.579 251.765 162.44 247.001 162.44C242.238 162.44 238.376 158.579 238.376 153.815C238.376 149.052 242.238 145.19 247.001 145.19C251.765 145.19 255.626 149.052 255.626 153.815V153.815Z" fill="white" fill-opacity="0.05"/>
<path d="M128.18 20.6158C129.54 20.6158 130.643 21.7187 130.643 23.0792C130.643 24.4397 129.54 25.542 128.18 25.542C126.82 25.542 125.717 24.4391 125.717 23.0792C125.717 21.7192 126.82 20.6158 128.18 20.6158Z" fill="white" fill-opacity="0.05"/>
<path d="M111.52 23.079C111.52 32.2807 118.979 39.7402 128.181 39.7402C137.382 39.7402 144.842 32.2807 144.842 23.079C144.842 13.8773 137.382 6.41722 128.181 6.41722C118.979 6.41722 111.52 13.8767 111.52 23.079ZM138.762 12.4969C141.589 15.3231 143.145 19.0811 143.145 23.0784C143.145 27.0758 141.589 30.8337 138.762 33.66C135.935 36.4868 132.178 38.0436 128.18 38.0436C124.183 38.0436 120.425 36.4868 117.599 33.66C114.772 30.8337 113.216 27.0758 113.216 23.0784C113.216 19.0811 114.772 15.3232 117.599 12.4969C120.425 9.67006 124.183 8.11389 128.18 8.11389C132.178 8.11389 135.935 9.67006 138.762 12.4969V12.4969ZM114.069 23.0784C114.069 30.8599 120.399 37.1904 128.18 37.1904C135.961 37.1904 142.292 30.8599 142.292 23.0784C142.292 15.297 135.962 8.96705 128.18 8.96705C120.399 8.96705 114.069 15.297 114.069 23.0784ZM136.806 23.079C136.806 27.8425 132.944 31.704 128.181 31.704C123.417 31.704 119.555 27.8425 119.555 23.079C119.555 18.3155 123.417 14.4535 128.181 14.4535C132.944 14.4535 136.806 18.3155 136.806 23.079V23.079Z" fill="white" fill-opacity="0.05"/>
<path d="M198.781 99.3332L176.702 99.6736L176.361 77.5948L178.794 79.9531L180.178 81.2967L180.179 81.2966L194.959 95.6276L194.962 95.6306L194.962 95.6313L196.35 96.9764L198.781 99.3332Z" fill="white" fill-opacity="0.05"/>
<path d="M365.819 282.088C367.179 282.088 368.282 283.191 368.282 284.552C368.282 285.912 367.179 287.015 365.819 287.015C364.459 287.015 363.355 285.912 363.355 284.552C363.355 283.192 364.458 282.088 365.819 282.088Z" fill="white" fill-opacity="0.05"/>
<path d="M349.158 284.552C349.158 293.753 356.618 301.213 365.819 301.213C375.021 301.213 382.481 293.753 382.481 284.552C382.481 275.35 375.021 267.89 365.819 267.89C356.618 267.89 349.158 275.349 349.158 284.552ZM376.4 273.97C379.227 276.796 380.784 280.554 380.784 284.551C380.784 288.548 379.227 292.306 376.4 295.133C373.574 297.959 369.816 299.516 365.819 299.516C361.821 299.516 358.064 297.959 355.237 295.133C352.41 292.306 350.854 288.548 350.854 284.551C350.854 280.554 352.41 276.796 355.237 273.97C358.064 271.143 361.821 269.587 365.819 269.587C369.816 269.587 373.574 271.143 376.4 273.97V273.97ZM351.707 284.551C351.707 292.333 358.038 298.663 365.819 298.663C373.6 298.663 379.931 292.333 379.931 284.551C379.931 276.77 373.6 270.44 365.819 270.44C358.037 270.44 351.707 276.77 351.707 284.551ZM374.444 284.552C374.444 289.315 370.583 293.177 365.819 293.177C361.056 293.177 357.194 289.315 357.194 284.552C357.194 279.788 361.056 275.926 365.819 275.926C370.583 275.926 374.444 279.788 374.444 284.552V284.552Z" fill="white" fill-opacity="0.05"/>
<path d="M295.196 208.321L317.275 207.983L317.613 230.062L315.181 227.703L313.797 226.359L313.796 226.359L299.017 212.027L299.014 212.024L299.014 212.023L297.627 210.678L295.196 208.321Z" fill="white" fill-opacity="0.05"/>
<path d="M247 253.699C248.36 253.699 249.463 254.802 249.463 256.162C249.463 257.523 248.36 258.625 247 258.625C245.641 258.625 244.537 257.522 244.537 256.162C244.537 254.802 245.64 253.699 247 253.699Z" fill="white" fill-opacity="0.05"/>
<path d="M230.34 256.162C230.34 265.364 237.799 272.823 247.001 272.823C256.203 272.823 263.662 265.364 263.662 256.162C263.662 246.96 256.203 239.5 247.001 239.5C237.799 239.5 230.34 246.96 230.34 256.162ZM257.582 245.58C260.409 248.406 261.966 252.164 261.966 256.161C261.966 260.159 260.409 263.917 257.582 266.743C254.756 269.57 250.998 271.127 247 271.127C243.003 271.127 239.245 269.57 236.419 266.743C233.592 263.917 232.036 260.159 232.036 256.161C232.036 252.164 233.592 248.406 236.419 245.58C239.245 242.753 243.003 241.197 247 241.197C250.998 241.197 254.756 242.753 257.582 245.58V245.58ZM232.889 256.161C232.889 263.943 239.22 270.273 247 270.273C254.781 270.273 261.112 263.943 261.112 256.161C261.112 248.38 254.782 242.05 247 242.05C239.219 242.05 232.889 248.38 232.889 256.161ZM255.626 256.162C255.626 260.926 251.765 264.787 247.001 264.787C242.238 264.787 238.376 260.926 238.376 256.162C238.376 251.399 242.238 247.536 247.001 247.536C251.765 247.536 255.626 251.399 255.626 256.162V256.162Z" fill="white" fill-opacity="0.05"/>
<path d="M128.18 122.962C129.54 122.962 130.643 124.065 130.643 125.426C130.643 126.786 129.54 127.889 128.18 127.889C126.82 127.889 125.717 126.786 125.717 125.426C125.717 124.066 126.82 122.962 128.18 122.962Z" fill="white" fill-opacity="0.05"/>
<path d="M111.52 125.426C111.52 134.627 118.979 142.087 128.181 142.087C137.382 142.087 144.842 134.627 144.842 125.426C144.842 116.224 137.382 108.764 128.181 108.764C118.979 108.764 111.52 116.223 111.52 125.426ZM138.762 114.844C141.589 117.67 143.145 121.428 143.145 125.425C143.145 129.422 141.589 133.18 138.762 136.007C135.935 138.834 132.178 140.39 128.18 140.39C124.183 140.39 120.425 138.834 117.599 136.007C114.772 133.18 113.216 129.422 113.216 125.425C113.216 121.428 114.772 117.67 117.599 114.844C120.425 112.017 124.183 110.461 128.18 110.461C132.178 110.461 135.935 112.017 138.762 114.844V114.844ZM114.069 125.425C114.069 133.207 120.399 139.537 128.18 139.537C135.961 139.537 142.292 133.207 142.292 125.425C142.292 117.644 135.962 111.314 128.18 111.314C120.399 111.314 114.069 117.644 114.069 125.425ZM136.806 125.426C136.806 130.189 132.944 134.051 128.181 134.051C123.417 134.051 119.555 130.189 119.555 125.426C119.555 120.662 123.417 116.8 128.181 116.8C132.944 116.8 136.806 120.662 136.806 125.426V125.426Z" fill="white" fill-opacity="0.05"/>
<path d="M198.781 201.68L176.702 202.02L176.361 179.941L178.794 182.3L180.178 183.643L180.179 183.643L194.959 197.974L194.962 197.977L194.962 197.978L196.35 199.323L198.781 201.68Z" fill="white" fill-opacity="0.05"/>
<path d="M45.4068 49.0895L67.4726 49.9215L66.6406 71.9873L64.337 69.5032L63.0254 68.088L63.0246 68.088L49.0264 52.9927L49.0235 52.9896L49.0235 52.9888L47.7089 51.572L45.4068 49.0895Z" fill="white" fill-opacity="0.05"/>
<path d="M365.819 384.435C367.179 384.435 368.282 385.538 368.282 386.899C368.282 388.259 367.179 389.361 365.819 389.361C364.459 389.361 363.355 388.258 363.355 386.899C363.355 385.539 364.458 384.435 365.819 384.435Z" fill="white" fill-opacity="0.05"/>
<path d="M349.158 386.898C349.158 396.1 356.618 403.56 365.819 403.56C375.021 403.56 382.481 396.1 382.481 386.898C382.481 377.697 375.021 370.237 365.819 370.237C356.618 370.237 349.158 377.696 349.158 386.898ZM376.4 376.316C379.227 379.142 380.784 382.9 380.784 386.898C380.784 390.895 379.227 394.653 376.4 397.479C373.574 400.306 369.816 401.863 365.819 401.863C361.821 401.863 358.064 400.306 355.237 397.479C352.41 394.653 350.854 390.895 350.854 386.898C350.854 382.9 352.41 379.142 355.237 376.316C358.064 373.489 361.821 371.933 365.819 371.933C369.816 371.933 373.574 373.489 376.4 376.316V376.316ZM351.707 386.898C351.707 394.679 358.038 401.01 365.819 401.01C373.6 401.01 379.931 394.679 379.931 386.898C379.931 379.116 373.6 372.786 365.819 372.786C358.037 372.786 351.707 379.116 351.707 386.898ZM374.444 386.898C374.444 391.662 370.583 395.523 365.819 395.523C361.056 395.523 357.194 391.662 357.194 386.898C357.194 382.135 361.056 378.273 365.819 378.273C370.583 378.273 374.444 382.135 374.444 386.898V386.898Z" fill="white" fill-opacity="0.05"/>
<path d="M295.196 310.668L317.275 310.329L317.613 332.408L315.181 330.05L313.797 328.706L313.796 328.706L299.017 314.374L299.014 314.371L299.014 314.37L297.627 313.025L295.196 310.668Z" fill="white" fill-opacity="0.05"/>
<path d="M8.66064 -0.763102C10.0206 -0.763102 11.1235 0.339759 11.1235 1.70028C11.1235 3.06079 10.0206 4.16309 8.66064 4.16309C7.3007 4.16309 6.19727 3.06023 6.19727 1.70028C6.19727 0.340328 7.30013 -0.763102 8.66064 -0.763102Z" fill="white" fill-opacity="0.05"/>
<path d="M-8 1.70011C-8 10.9018 -0.540473 18.3613 8.66122 18.3613C17.8629 18.3613 25.3224 10.9018 25.3224 1.7001C25.3224 -7.50159 17.8629 -14.9617 8.66122 -14.9617C-0.540475 -14.9617 -8 -7.50216 -8 1.70011ZM19.2422 -8.88202C22.069 -6.05576 23.6258 -2.29784 23.6258 1.69954C23.6258 5.69691 22.069 9.45483 19.2422 12.2811C16.4159 15.1079 12.658 16.6647 8.66065 16.6647C4.66328 16.6647 0.905361 15.1079 -1.9209 12.2811C-4.74773 9.45483 -6.3039 5.69691 -6.3039 1.69954C-6.3039 -2.29784 -4.74773 -6.05576 -1.9209 -8.88202C0.90536 -11.7088 4.66328 -13.265 8.66065 -13.265C12.658 -13.265 16.4159 -11.7088 19.2422 -8.88202V-8.88202ZM-5.45074 1.69954C-5.45074 9.48099 0.879767 15.8115 8.66065 15.8115C16.4415 15.8115 22.7726 9.48099 22.7726 1.69954C22.7726 -6.08192 16.4421 -12.4119 8.66065 -12.4119C0.879197 -12.4119 -5.45074 -6.08192 -5.45074 1.69954ZM17.2862 1.7001C17.2862 6.46362 13.4247 10.3251 8.66122 10.3251C3.8977 10.3251 0.0356991 6.46362 0.0356989 1.70011C0.0356987 -3.06341 3.8977 -6.92542 8.66122 -6.92542C13.4247 -6.92542 17.2862 -3.06341 17.2862 1.7001V1.7001Z" fill="white" fill-opacity="0.05"/>
<path d="M247 356.045C248.36 356.045 249.463 357.147 249.463 358.508C249.463 359.868 248.36 360.971 247 360.971C245.641 360.971 244.537 359.868 244.537 358.508C244.537 357.148 245.64 356.045 247 356.045Z" fill="white" fill-opacity="0.05"/>
<path d="M230.34 358.508C230.34 367.709 237.799 375.169 247.001 375.169C256.203 375.169 263.662 367.709 263.662 358.508C263.662 349.306 256.203 341.846 247.001 341.846C237.799 341.846 230.34 349.305 230.34 358.508ZM257.582 347.926C260.409 350.752 261.966 354.51 261.966 358.507C261.966 362.505 260.409 366.262 257.582 369.089C254.756 371.916 250.998 373.472 247 373.472C243.003 373.472 239.245 371.916 236.419 369.089C233.592 366.262 232.036 362.505 232.036 358.507C232.036 354.51 233.592 350.752 236.419 347.926C239.245 345.099 243.003 343.543 247 343.543C250.998 343.543 254.756 345.099 257.582 347.926V347.926ZM232.889 358.507C232.889 366.289 239.22 372.619 247 372.619C254.781 372.619 261.112 366.289 261.112 358.507C261.112 350.726 254.782 344.396 247 344.396C239.219 344.396 232.889 350.726 232.889 358.507ZM255.626 358.508C255.626 363.271 251.765 367.133 247.001 367.133C242.238 367.133 238.376 363.271 238.376 358.508C238.376 353.744 242.238 349.882 247.001 349.882C251.765 349.882 255.626 353.744 255.626 358.508V358.508Z" fill="white" fill-opacity="0.05"/>
<path d="M128.18 225.308C129.54 225.308 130.643 226.411 130.643 227.772C130.643 229.132 129.54 230.234 128.18 230.234C126.82 230.234 125.717 229.132 125.717 227.772C125.717 226.412 126.82 225.308 128.18 225.308Z" fill="white" fill-opacity="0.05"/>
<path d="M111.52 227.771C111.52 236.973 118.979 244.433 128.181 244.433C137.382 244.433 144.842 236.973 144.842 227.771C144.842 218.57 137.382 211.11 128.181 211.11C118.979 211.11 111.52 218.569 111.52 227.771ZM138.762 217.189C141.589 220.016 143.145 223.773 143.145 227.771C143.145 231.768 141.589 235.526 138.762 238.352C135.935 241.179 132.178 242.736 128.18 242.736C124.183 242.736 120.425 241.179 117.599 238.352C114.772 235.526 113.216 231.768 113.216 227.771C113.216 223.773 114.772 220.016 117.599 217.189C120.425 214.362 124.183 212.806 128.18 212.806C132.178 212.806 135.935 214.362 138.762 217.189V217.189ZM114.069 227.771C114.069 235.552 120.399 241.883 128.18 241.883C135.961 241.883 142.292 235.552 142.292 227.771C142.292 219.989 135.962 213.659 128.18 213.659C120.399 213.659 114.069 219.989 114.069 227.771ZM136.806 227.771C136.806 232.535 132.944 236.396 128.181 236.396C123.417 236.396 119.555 232.535 119.555 227.771C119.555 223.008 123.417 219.146 128.181 219.146C132.944 219.146 136.806 223.008 136.806 227.771V227.771Z" fill="white" fill-opacity="0.05"/>
<path d="M198.781 304.025L176.702 304.365L176.361 282.286L178.794 284.644L180.178 285.988L180.179 285.988L194.959 300.319L194.962 300.322L194.962 300.323L196.35 301.668L198.781 304.025Z" fill="white" fill-opacity="0.05"/>
<path d="M45.4068 151.434L67.4726 152.266L66.6406 174.332L64.337 171.848L63.0254 170.433L63.0246 170.433L49.0264 155.337L49.0235 155.334L49.0235 155.334L47.7089 153.917L45.4068 151.434Z" fill="white" fill-opacity="0.05"/>
<path d="M365.819 486.781C367.179 486.781 368.282 487.884 368.282 489.244C368.282 490.605 367.179 491.707 365.819 491.707C364.459 491.707 363.355 490.604 363.355 489.244C363.355 487.884 364.458 486.781 365.819 486.781Z" fill="white" fill-opacity="0.05"/>
<path d="M349.158 489.244C349.158 498.446 356.618 505.905 365.819 505.905C375.021 505.905 382.481 498.446 382.481 489.244C382.481 480.042 375.021 472.582 365.819 472.582C356.618 472.582 349.158 480.042 349.158 489.244ZM376.4 478.662C379.227 481.488 380.784 485.246 380.784 489.243C380.784 493.241 379.227 496.999 376.4 499.825C373.574 502.652 369.816 504.209 365.819 504.209C361.821 504.209 358.064 502.652 355.237 499.825C352.41 496.999 350.854 493.241 350.854 489.243C350.854 485.246 352.41 481.488 355.237 478.662C358.064 475.835 361.821 474.279 365.819 474.279C369.816 474.279 373.574 475.835 376.4 478.662V478.662ZM351.707 489.243C351.707 497.025 358.038 503.355 365.819 503.355C373.6 503.355 379.931 497.025 379.931 489.243C379.931 481.462 373.6 475.132 365.819 475.132C358.037 475.132 351.707 481.462 351.707 489.243ZM374.444 489.244C374.444 494.008 370.583 497.869 365.819 497.869C361.056 497.869 357.194 494.008 357.194 489.244C357.194 484.481 361.056 480.619 365.819 480.619C370.583 480.619 374.444 484.481 374.444 489.244V489.244Z" fill="white" fill-opacity="0.05"/>
<path d="M295.196 413.013L317.275 412.675L317.613 434.754L315.181 432.395L313.797 431.052L313.796 431.052L299.017 416.719L299.014 416.716L299.014 416.716L297.627 415.37L295.196 413.013Z" fill="white" fill-opacity="0.05"/>
<path d="M8.66064 101.582C10.0206 101.582 11.1235 102.684 11.1235 104.045C11.1235 105.406 10.0206 106.508 8.66064 106.508C7.3007 106.508 6.19727 105.405 6.19727 104.045C6.19727 102.685 7.30013 101.582 8.66064 101.582Z" fill="white" fill-opacity="0.05"/>
<path d="M-8 104.045C-8 113.247 -0.540473 120.706 8.66122 120.706C17.8629 120.706 25.3224 113.247 25.3224 104.045C25.3224 94.8431 17.8629 87.383 8.66122 87.383C-0.540475 87.383 -8 94.8426 -8 104.045ZM19.2422 93.4627C22.069 96.289 23.6258 100.047 23.6258 104.044C23.6258 108.042 22.069 111.8 19.2422 114.626C16.4159 117.453 12.658 119.009 8.66065 119.009C4.66328 119.009 0.905361 117.453 -1.9209 114.626C-4.74773 111.8 -6.3039 108.042 -6.3039 104.044C-6.3039 100.047 -4.74773 96.289 -1.9209 93.4627C0.90536 90.6359 4.66328 89.0797 8.66065 89.0797C12.658 89.0797 16.4159 90.6359 19.2422 93.4627V93.4627ZM-5.45074 104.044C-5.45074 111.826 0.879767 118.156 8.66065 118.156C16.4415 118.156 22.7726 111.826 22.7726 104.044C22.7726 96.2628 16.4421 89.9329 8.66065 89.9329C0.879197 89.9329 -5.45074 96.2628 -5.45074 104.044ZM17.2862 104.045C17.2862 108.808 13.4247 112.67 8.66122 112.67C3.8977 112.67 0.0356991 108.808 0.0356989 104.045C0.0356987 99.2813 3.8977 95.4193 8.66122 95.4193C13.4247 95.4193 17.2862 99.2813 17.2862 104.045V104.045Z" fill="white" fill-opacity="0.05"/>
<path d="M247 458.39C248.36 458.39 249.463 459.493 249.463 460.854C249.463 462.214 248.36 463.316 247 463.316C245.641 463.316 244.537 462.214 244.537 460.854C244.537 459.494 245.64 458.39 247 458.39Z" fill="white" fill-opacity="0.05"/>
<path d="M230.34 460.853C230.34 470.055 237.799 477.515 247.001 477.515C256.203 477.515 263.662 470.055 263.662 460.853C263.662 451.652 256.203 444.192 247.001 444.192C237.799 444.192 230.34 451.651 230.34 460.853ZM257.582 450.271C260.409 453.098 261.966 456.855 261.966 460.853C261.966 464.85 260.409 468.608 257.582 471.434C254.756 474.261 250.998 475.818 247 475.818C243.003 475.818 239.245 474.261 236.419 471.434C233.592 468.608 232.036 464.85 232.036 460.853C232.036 456.855 233.592 453.098 236.419 450.271C239.245 447.444 243.003 445.888 247 445.888C250.998 445.888 254.756 447.444 257.582 450.271V450.271ZM232.889 460.853C232.889 468.634 239.22 474.965 247 474.965C254.781 474.965 261.112 468.634 261.112 460.853C261.112 453.071 254.782 446.741 247 446.741C239.219 446.741 232.889 453.071 232.889 460.853ZM255.626 460.853C255.626 465.617 251.765 469.478 247.001 469.478C242.238 469.478 238.376 465.617 238.376 460.853C238.376 456.09 242.238 452.228 247.001 452.228C251.765 452.228 255.626 456.09 255.626 460.853V460.853Z" fill="white" fill-opacity="0.05"/>
<path d="M128.18 327.654C129.54 327.654 130.643 328.757 130.643 330.117C130.643 331.478 129.54 332.58 128.18 332.58C126.82 332.58 125.717 331.477 125.717 330.117C125.717 328.757 126.82 327.654 128.18 327.654Z" fill="white" fill-opacity="0.05"/>
<path d="M111.52 330.117C111.52 339.319 118.979 346.778 128.181 346.778C137.382 346.778 144.842 339.319 144.842 330.117C144.842 320.915 137.382 313.455 128.181 313.455C118.979 313.455 111.52 320.915 111.52 330.117ZM138.762 319.535C141.589 322.361 143.145 326.119 143.145 330.117C143.145 334.114 141.589 337.872 138.762 340.698C135.935 343.525 132.178 345.082 128.18 345.082C124.183 345.082 120.425 343.525 117.599 340.698C114.772 337.872 113.216 334.114 113.216 330.117C113.216 326.119 114.772 322.361 117.599 319.535C120.425 316.708 124.183 315.152 128.18 315.152C132.178 315.152 135.935 316.708 138.762 319.535V319.535ZM114.069 330.117C114.069 337.898 120.399 344.228 128.18 344.228C135.961 344.228 142.292 337.898 142.292 330.117C142.292 322.335 135.962 316.005 128.18 316.005C120.399 316.005 114.069 322.335 114.069 330.117ZM136.806 330.117C136.806 334.881 132.944 338.742 128.181 338.742C123.417 338.742 119.555 334.881 119.555 330.117C119.555 325.354 123.417 321.492 128.181 321.492C132.944 321.492 136.806 325.354 136.806 330.117V330.117Z" fill="white" fill-opacity="0.05"/>
<path d="M198.781 406.371L176.702 406.712L176.361 384.633L178.794 386.991L180.178 388.335L180.179 388.335L194.959 402.666L194.962 402.669L194.962 402.669L196.35 404.014L198.781 406.371Z" fill="white" fill-opacity="0.05"/>
<path d="M45.4068 253.781L67.4726 254.613L66.6406 276.679L64.337 274.195L63.0254 272.779L63.0246 272.779L49.0264 257.684L49.0235 257.681L49.0235 257.68L47.7089 256.263L45.4068 253.781Z" fill="white" fill-opacity="0.05"/>
<path d="M365.819 589.127C367.179 589.127 368.282 590.229 368.282 591.59C368.282 592.95 367.179 594.053 365.819 594.053C364.459 594.053 363.355 592.95 363.355 591.59C363.355 590.23 364.458 589.127 365.819 589.127Z" fill="white" fill-opacity="0.05"/>
<path d="M349.158 591.59C349.158 600.791 356.618 608.251 365.819 608.251C375.021 608.251 382.481 600.791 382.481 591.59C382.481 582.388 375.021 574.928 365.819 574.928C356.618 574.928 349.158 582.387 349.158 591.59ZM376.4 581.008C379.227 583.834 380.784 587.592 380.784 591.589C380.784 595.587 379.227 599.344 376.4 602.171C373.574 604.998 369.816 606.554 365.819 606.554C361.821 606.554 358.064 604.998 355.237 602.171C352.41 599.344 350.854 595.587 350.854 591.589C350.854 587.592 352.41 583.834 355.237 581.008C358.064 578.181 361.821 576.625 365.819 576.625C369.816 576.625 373.574 578.181 376.4 581.008V581.008ZM351.707 591.589C351.707 599.371 358.038 605.701 365.819 605.701C373.6 605.701 379.931 599.371 379.931 591.589C379.931 583.808 373.6 577.478 365.819 577.478C358.037 577.478 351.707 583.808 351.707 591.589ZM374.444 591.59C374.444 596.353 370.583 600.215 365.819 600.215C361.056 600.215 357.194 596.353 357.194 591.59C357.194 586.826 361.056 582.964 365.819 582.964C370.583 582.964 374.444 586.826 374.444 591.59V591.59Z" fill="white" fill-opacity="0.05"/>
<path d="M295.196 515.359L317.275 515.021L317.613 537.1L315.181 534.741L313.797 533.397L313.796 533.397L299.017 519.065L299.014 519.062L299.014 519.061L297.627 517.716L295.196 515.359Z" fill="white" fill-opacity="0.05"/>
<path d="M8.66064 203.927C10.0206 203.927 11.1235 205.03 11.1235 206.391C11.1235 207.751 10.0206 208.854 8.66064 208.854C7.3007 208.854 6.19727 207.751 6.19727 206.391C6.19727 205.031 7.30013 203.927 8.66064 203.927Z" fill="white" fill-opacity="0.05"/>
<path d="M-8 206.391C-8 215.592 -0.540473 223.052 8.66122 223.052C17.8629 223.052 25.3224 215.592 25.3224 206.391C25.3224 197.189 17.8629 189.729 8.66122 189.729C-0.540475 189.729 -8 197.188 -8 206.391ZM19.2422 195.808C22.069 198.635 23.6258 202.393 23.6258 206.39C23.6258 210.387 22.069 214.145 19.2422 216.972C16.4159 219.798 12.658 221.355 8.66065 221.355C4.66328 221.355 0.905361 219.798 -1.9209 216.972C-4.74773 214.145 -6.3039 210.387 -6.3039 206.39C-6.3039 202.393 -4.74773 198.635 -1.9209 195.808C0.90536 192.982 4.66328 191.425 8.66065 191.425C12.658 191.425 16.4159 192.982 19.2422 195.808V195.808ZM-5.45074 206.39C-5.45074 214.171 0.879767 220.502 8.66065 220.502C16.4415 220.502 22.7726 214.171 22.7726 206.39C22.7726 198.609 16.4421 192.279 8.66065 192.279C0.879197 192.279 -5.45074 198.609 -5.45074 206.39ZM17.2862 206.391C17.2862 211.154 13.4247 215.015 8.66122 215.015C3.8977 215.015 0.0356991 211.154 0.0356989 206.391C0.0356987 201.627 3.8977 197.765 8.66122 197.765C13.4247 197.765 17.2862 201.627 17.2862 206.391V206.391Z" fill="white" fill-opacity="0.05"/>
<path d="M247 560.736C248.36 560.736 249.463 561.839 249.463 563.199C249.463 564.56 248.36 565.662 247 565.662C245.641 565.662 244.537 564.559 244.537 563.199C244.537 561.839 245.64 560.736 247 560.736Z" fill="white" fill-opacity="0.05"/>
<path d="M230.34 563.199C230.34 572.401 237.799 579.86 247.001 579.86C256.203 579.86 263.662 572.401 263.662 563.199C263.662 553.997 256.203 546.537 247.001 546.537C237.799 546.537 230.34 553.997 230.34 563.199ZM257.582 552.617C260.409 555.443 261.966 559.201 261.966 563.199C261.966 567.196 260.409 570.954 257.582 573.78C254.756 576.607 250.998 578.164 247 578.164C243.003 578.164 239.245 576.607 236.419 573.78C233.592 570.954 232.036 567.196 232.036 563.199C232.036 559.201 233.592 555.443 236.419 552.617C239.245 549.79 243.003 548.234 247 548.234C250.998 548.234 254.756 549.79 257.582 552.617V552.617ZM232.889 563.199C232.889 570.98 239.22 577.311 247 577.311C254.781 577.311 261.112 570.98 261.112 563.199C261.112 555.417 254.782 549.087 247 549.087C239.219 549.087 232.889 555.417 232.889 563.199ZM255.626 563.199C255.626 567.963 251.765 571.824 247.001 571.824C242.238 571.824 238.376 567.963 238.376 563.199C238.376 558.436 242.238 554.574 247.001 554.574C251.765 554.574 255.626 558.436 255.626 563.199V563.199Z" fill="white" fill-opacity="0.05"/>
<path d="M128.18 430C129.54 430 130.643 431.102 130.643 432.463C130.643 433.823 129.54 434.926 128.18 434.926C126.82 434.926 125.717 433.823 125.717 432.463C125.717 431.103 126.82 430 128.18 430Z" fill="white" fill-opacity="0.05"/>
<path d="M111.52 432.463C111.52 441.664 118.979 449.124 128.181 449.124C137.382 449.124 144.842 441.664 144.842 432.463C144.842 423.261 137.382 415.801 128.181 415.801C118.979 415.801 111.52 423.261 111.52 432.463ZM138.762 421.881C141.589 424.707 143.145 428.465 143.145 432.462C143.145 436.46 141.589 440.218 138.762 443.044C135.935 445.871 132.178 447.427 128.18 447.427C124.183 447.427 120.425 445.871 117.599 443.044C114.772 440.218 113.216 436.46 113.216 432.462C113.216 428.465 114.772 424.707 117.599 421.881C120.425 419.054 124.183 417.498 128.18 417.498C132.178 417.498 135.935 419.054 138.762 421.881V421.881ZM114.069 432.462C114.069 440.244 120.399 446.574 128.18 446.574C135.961 446.574 142.292 440.244 142.292 432.462C142.292 424.681 135.962 418.351 128.18 418.351C120.399 418.351 114.069 424.681 114.069 432.462ZM136.806 432.463C136.806 437.226 132.944 441.088 128.181 441.088C123.417 441.088 119.555 437.226 119.555 432.463C119.555 427.699 123.417 423.837 128.181 423.837C132.944 423.837 136.806 427.699 136.806 432.463V432.463Z" fill="white" fill-opacity="0.05"/>
<path d="M198.781 508.716L176.702 509.056L176.361 486.978L178.794 489.336L180.178 490.679L180.179 490.679L194.959 505.01L194.962 505.013L194.962 505.014L196.35 506.359L198.781 508.716Z" fill="white" fill-opacity="0.05"/>
<path d="M45.4068 356.127L67.4726 356.959L66.6406 379.024L64.337 376.54L63.0254 375.125L63.0246 375.125L49.0264 360.03L49.0235 360.027L49.0235 360.026L47.7089 358.609L45.4068 356.127Z" fill="white" fill-opacity="0.05"/>
<path d="M365.819 691.472C367.179 691.472 368.282 692.575 368.282 693.936C368.282 695.296 367.179 696.398 365.819 696.398C364.459 696.398 363.355 695.296 363.355 693.936C363.355 692.576 364.458 691.472 365.819 691.472Z" fill="white" fill-opacity="0.05"/>
<path d="M349.158 693.935C349.158 703.137 356.618 710.597 365.819 710.597C375.021 710.597 382.481 703.137 382.481 693.935C382.481 684.734 375.021 677.274 365.819 677.274C356.618 677.274 349.158 684.733 349.158 693.935ZM376.4 683.353C379.227 686.18 380.784 689.938 380.784 693.935C380.784 697.932 379.227 701.69 376.4 704.516C373.574 707.343 369.816 708.9 365.819 708.9C361.821 708.9 358.064 707.343 355.237 704.516C352.41 701.69 350.854 697.932 350.854 693.935C350.854 689.938 352.41 686.18 355.237 683.353C358.064 680.527 361.821 678.97 365.819 678.97C369.816 678.97 373.574 680.527 376.4 683.353V683.353ZM351.707 693.935C351.707 701.716 358.038 708.047 365.819 708.047C373.6 708.047 379.931 701.716 379.931 693.935C379.931 686.153 373.6 679.823 365.819 679.823C358.037 679.823 351.707 686.153 351.707 693.935ZM374.444 693.935C374.444 698.699 370.583 702.56 365.819 702.56C361.056 702.56 357.194 698.699 357.194 693.935C357.194 689.172 361.056 685.31 365.819 685.31C370.583 685.31 374.444 689.172 374.444 693.935V693.935Z" fill="white" fill-opacity="0.05"/>
<path d="M295.196 617.705L317.275 617.366L317.613 639.445L315.181 637.087L313.797 635.743L313.796 635.743L299.017 621.411L299.014 621.408L299.014 621.407L297.627 620.062L295.196 617.705Z" fill="white" fill-opacity="0.05"/>
<path d="M8.66064 306.273C10.0206 306.273 11.1235 307.376 11.1235 308.736C11.1235 310.097 10.0206 311.199 8.66064 311.199C7.3007 311.199 6.19727 310.096 6.19727 308.736C6.19727 307.376 7.30013 306.273 8.66064 306.273Z" fill="white" fill-opacity="0.05"/>
<path d="M-8 308.736C-8 317.938 -0.540473 325.397 8.66122 325.397C17.8629 325.397 25.3224 317.938 25.3224 308.736C25.3224 299.535 17.8629 292.074 8.66122 292.074C-0.540475 292.074 -8 299.534 -8 308.736ZM19.2422 298.154C22.069 300.98 23.6258 304.738 23.6258 308.736C23.6258 312.733 22.069 316.491 19.2422 319.317C16.4159 322.144 12.658 323.701 8.66065 323.701C4.66328 323.701 0.905361 322.144 -1.9209 319.317C-4.74773 316.491 -6.3039 312.733 -6.3039 308.736C-6.3039 304.738 -4.74773 300.98 -1.9209 298.154C0.90536 295.327 4.66328 293.771 8.66065 293.771C12.658 293.771 16.4159 295.327 19.2422 298.154V298.154ZM-5.45074 308.736C-5.45074 316.517 0.879767 322.848 8.66065 322.848C16.4415 322.848 22.7726 316.517 22.7726 308.736C22.7726 300.954 16.4421 294.624 8.66065 294.624C0.879197 294.624 -5.45074 300.954 -5.45074 308.736ZM17.2862 308.736C17.2862 313.5 13.4247 317.361 8.66122 317.361C3.8977 317.361 0.0356991 313.5 0.0356989 308.736C0.0356987 303.973 3.8977 300.111 8.66122 300.111C13.4247 300.111 17.2862 303.973 17.2862 308.736V308.736Z" fill="white" fill-opacity="0.05"/>
<path d="M247 663.083C248.36 663.083 249.463 664.185 249.463 665.546C249.463 666.906 248.36 668.009 247 668.009C245.641 668.009 244.537 666.906 244.537 665.546C244.537 664.186 245.64 663.083 247 663.083Z" fill="white" fill-opacity="0.05"/>
<path d="M230.34 665.546C230.34 674.748 237.799 682.207 247.001 682.207C256.203 682.207 263.662 674.748 263.662 665.546C263.662 656.344 256.203 648.884 247.001 648.884C237.799 648.884 230.34 656.344 230.34 665.546ZM257.582 654.964C260.409 657.79 261.966 661.548 261.966 665.545C261.966 669.543 260.409 673.301 257.582 676.127C254.756 678.954 250.998 680.51 247 680.51C243.003 680.51 239.245 678.954 236.419 676.127C233.592 673.301 232.036 669.543 232.036 665.545C232.036 661.548 233.592 657.79 236.419 654.964C239.245 652.137 243.003 650.581 247 650.581C250.998 650.581 254.756 652.137 257.582 654.964V654.964ZM232.889 665.545C232.889 673.327 239.22 679.657 247 679.657C254.781 679.657 261.112 673.327 261.112 665.545C261.112 657.764 254.782 651.434 247 651.434C239.219 651.434 232.889 657.764 232.889 665.545ZM255.626 665.546C255.626 670.309 251.765 674.171 247.001 674.171C242.238 674.171 238.376 670.309 238.376 665.546C238.376 660.782 242.238 656.92 247.001 656.92C251.765 656.92 255.626 660.782 255.626 665.546V665.546Z" fill="white" fill-opacity="0.05"/>
<path d="M128.18 532.346C129.54 532.346 130.643 533.449 130.643 534.81C130.643 536.17 129.54 537.272 128.18 537.272C126.82 537.272 125.717 536.17 125.717 534.81C125.717 533.45 126.82 532.346 128.18 532.346Z" fill="white" fill-opacity="0.05"/>
<path d="M111.52 534.809C111.52 544.011 118.979 551.471 128.181 551.471C137.382 551.471 144.842 544.011 144.842 534.809C144.842 525.608 137.382 518.148 128.181 518.148C118.979 518.148 111.52 525.607 111.52 534.809ZM138.762 524.227C141.589 527.054 143.145 530.812 143.145 534.809C143.145 538.806 141.589 542.564 138.762 545.39C135.935 548.217 132.178 549.774 128.18 549.774C124.183 549.774 120.425 548.217 117.599 545.39C114.772 542.564 113.216 538.806 113.216 534.809C113.216 530.812 114.772 527.054 117.599 524.227C120.425 521.401 124.183 519.844 128.18 519.844C132.178 519.844 135.935 521.401 138.762 524.227V524.227ZM114.069 534.809C114.069 542.59 120.399 548.921 128.18 548.921C135.961 548.921 142.292 542.59 142.292 534.809C142.292 527.027 135.962 520.698 128.18 520.698C120.399 520.698 114.069 527.027 114.069 534.809ZM136.806 534.809C136.806 539.573 132.944 543.434 128.181 543.434C123.417 543.434 119.555 539.573 119.555 534.809C119.555 530.046 123.417 526.184 128.181 526.184C132.944 526.184 136.806 530.046 136.806 534.809V534.809Z" fill="white" fill-opacity="0.05"/>
<path d="M198.781 611.063L176.702 611.403L176.361 589.324L178.794 591.683L180.178 593.026L180.179 593.026L194.959 607.357L194.962 607.36L194.962 607.361L196.35 608.706L198.781 611.063Z" fill="white" fill-opacity="0.05"/>
<path d="M45.4068 458.473L67.4726 459.305L66.6406 481.371L64.337 478.887L63.0254 477.472L63.0246 477.472L49.0264 462.377L49.0235 462.373L49.0235 462.373L47.7089 460.956L45.4068 458.473Z" fill="white" fill-opacity="0.05"/>
<path d="M365.819 793.819C367.179 793.819 368.282 794.922 368.282 796.282C368.282 797.643 367.179 798.745 365.819 798.745C364.459 798.745 363.355 797.642 363.355 796.282C363.355 794.922 364.458 793.819 365.819 793.819Z" fill="white" fill-opacity="0.05"/>
<path d="M349.158 796.282C349.158 805.484 356.618 812.943 365.819 812.943C375.021 812.943 382.481 805.484 382.481 796.282C382.481 787.08 375.021 779.62 365.819 779.62C356.618 779.62 349.158 787.08 349.158 796.282ZM376.4 785.7C379.227 788.526 380.784 792.284 380.784 796.282C380.784 800.279 379.227 804.037 376.4 806.863C373.574 809.69 369.816 811.247 365.819 811.247C361.821 811.247 358.064 809.69 355.237 806.863C352.41 804.037 350.854 800.279 350.854 796.282C350.854 792.284 352.41 788.526 355.237 785.7C358.064 782.873 361.821 781.317 365.819 781.317C369.816 781.317 373.574 782.873 376.4 785.7V785.7ZM351.707 796.282C351.707 804.063 358.038 810.394 365.819 810.394C373.6 810.394 379.931 804.063 379.931 796.282C379.931 788.5 373.6 782.17 365.819 782.17C358.037 782.17 351.707 788.5 351.707 796.282ZM374.444 796.282C374.444 801.046 370.583 804.907 365.819 804.907C361.056 804.907 357.194 801.046 357.194 796.282C357.194 791.519 361.056 787.657 365.819 787.657C370.583 787.657 374.444 791.519 374.444 796.282V796.282Z" fill="white" fill-opacity="0.05"/>
<path d="M295.196 720.051L317.275 719.713L317.613 741.792L315.181 739.433L313.797 738.09L313.796 738.09L299.017 723.757L299.014 723.754L299.014 723.754L297.627 722.408L295.196 720.051Z" fill="white" fill-opacity="0.05"/>
<path d="M8.66064 408.62C10.0206 408.62 11.1235 409.723 11.1235 411.083C11.1235 412.444 10.0206 413.546 8.66064 413.546C7.3007 413.546 6.19727 412.443 6.19727 411.083C6.19727 409.723 7.30013 408.62 8.66064 408.62Z" fill="white" fill-opacity="0.05"/>
<path d="M-8 411.083C-8 420.285 -0.540473 427.744 8.66122 427.744C17.8629 427.744 25.3224 420.285 25.3224 411.083C25.3224 401.881 17.8629 394.421 8.66122 394.421C-0.540475 394.421 -8 401.881 -8 411.083ZM19.2422 400.501C22.069 403.327 23.6258 407.085 23.6258 411.082C23.6258 415.08 22.069 418.838 19.2422 421.664C16.4159 424.491 12.658 426.047 8.66065 426.047C4.66328 426.047 0.905361 424.491 -1.9209 421.664C-4.74773 418.838 -6.3039 415.08 -6.3039 411.082C-6.3039 407.085 -4.74773 403.327 -1.9209 400.501C0.90536 397.674 4.66328 396.118 8.66065 396.118C12.658 396.118 16.4159 397.674 19.2422 400.501V400.501ZM-5.45074 411.082C-5.45074 418.864 0.879767 425.194 8.66065 425.194C16.4415 425.194 22.7726 418.864 22.7726 411.082C22.7726 403.301 16.4421 396.971 8.66065 396.971C0.879197 396.971 -5.45074 403.301 -5.45074 411.082ZM17.2862 411.083C17.2862 415.846 13.4247 419.708 8.66122 419.708C3.8977 419.708 0.0356991 415.846 0.0356989 411.083C0.0356987 406.319 3.8977 402.457 8.66122 402.457C13.4247 402.457 17.2862 406.319 17.2862 411.083V411.083Z" fill="white" fill-opacity="0.05"/>
<path d="M247 765.427C248.36 765.427 249.463 766.53 249.463 767.891C249.463 769.251 248.36 770.354 247 770.354C245.641 770.354 244.537 769.251 244.537 767.891C244.537 766.531 245.64 765.427 247 765.427Z" fill="white" fill-opacity="0.05"/>
<path d="M230.34 767.891C230.34 777.092 237.799 784.552 247.001 784.552C256.203 784.552 263.662 777.092 263.662 767.891C263.662 758.689 256.203 751.229 247.001 751.229C237.799 751.229 230.34 758.688 230.34 767.891ZM257.582 757.308C260.409 760.135 261.966 763.893 261.966 767.89C261.966 771.887 260.409 775.645 257.582 778.472C254.756 781.298 250.998 782.855 247 782.855C243.003 782.855 239.245 781.298 236.419 778.472C233.592 775.645 232.036 771.887 232.036 767.89C232.036 763.893 233.592 760.135 236.419 757.308C239.245 754.482 243.003 752.925 247 752.925C250.998 752.925 254.756 754.482 257.582 757.308V757.308ZM232.889 767.89C232.889 775.671 239.22 782.002 247 782.002C254.781 782.002 261.112 775.671 261.112 767.89C261.112 760.109 254.782 753.779 247 753.779C239.219 753.779 232.889 760.109 232.889 767.89ZM255.626 767.891C255.626 772.654 251.765 776.515 247.001 776.515C242.238 776.515 238.376 772.654 238.376 767.891C238.376 763.127 242.238 759.265 247.001 759.265C251.765 759.265 255.626 763.127 255.626 767.891V767.891Z" fill="white" fill-opacity="0.05"/>
<path d="M128.18 634.691C129.54 634.691 130.643 635.794 130.643 637.154C130.643 638.515 129.54 639.617 128.18 639.617C126.82 639.617 125.717 638.514 125.717 637.154C125.717 635.794 126.82 634.691 128.18 634.691Z" fill="white" fill-opacity="0.05"/>
<path d="M111.52 637.154C111.52 646.356 118.979 653.815 128.181 653.815C137.382 653.815 144.842 646.356 144.842 637.154C144.842 627.953 137.382 620.492 128.181 620.492C118.979 620.492 111.52 627.952 111.52 637.154ZM138.762 626.572C141.589 629.398 143.145 633.156 143.145 637.154C143.145 641.151 141.589 644.909 138.762 647.735C135.935 650.562 132.178 652.119 128.18 652.119C124.183 652.119 120.425 650.562 117.599 647.735C114.772 644.909 113.216 641.151 113.216 637.154C113.216 633.156 114.772 629.398 117.599 626.572C120.425 623.745 124.183 622.189 128.18 622.189C132.178 622.189 135.935 623.745 138.762 626.572V626.572ZM114.069 637.154C114.069 644.935 120.399 651.266 128.18 651.266C135.961 651.266 142.292 644.935 142.292 637.154C142.292 629.372 135.962 623.042 128.18 623.042C120.399 623.042 114.069 629.372 114.069 637.154ZM136.806 637.154C136.806 641.918 132.944 645.779 128.181 645.779C123.417 645.779 119.555 641.918 119.555 637.154C119.555 632.391 123.417 628.529 128.181 628.529C132.944 628.529 136.806 632.391 136.806 637.154V637.154Z" fill="white" fill-opacity="0.05"/>
<path d="M198.781 713.408L176.702 713.749L176.361 691.67L178.794 694.028L180.178 695.372L180.179 695.372L194.959 709.703L194.962 709.706L194.962 709.707L196.35 711.052L198.781 713.408Z" fill="white" fill-opacity="0.05"/>
<path d="M45.4068 560.818L67.4726 561.65L66.6406 583.716L64.337 581.232L63.0254 579.817L63.0246 579.816L49.0264 564.721L49.0235 564.718L49.0235 564.717L47.7089 563.301L45.4068 560.818Z" fill="white" fill-opacity="0.05"/>
<path d="M8.66064 510.965C10.0206 510.965 11.1235 512.068 11.1235 513.429C11.1235 514.789 10.0206 515.892 8.66064 515.892C7.3007 515.892 6.19727 514.789 6.19727 513.429C6.19727 512.069 7.30013 510.965 8.66064 510.965Z" fill="white" fill-opacity="0.05"/>
<path d="M-8 513.429C-8 522.63 -0.540473 530.09 8.66122 530.09C17.8629 530.09 25.3224 522.63 25.3224 513.429C25.3224 504.227 17.8629 496.767 8.66122 496.767C-0.540475 496.767 -8 504.226 -8 513.429ZM19.2422 502.846C22.069 505.673 23.6258 509.431 23.6258 513.428C23.6258 517.425 22.069 521.183 19.2422 524.01C16.4159 526.836 12.658 528.393 8.66065 528.393C4.66328 528.393 0.905361 526.836 -1.9209 524.01C-4.74773 521.183 -6.3039 517.425 -6.3039 513.428C-6.3039 509.431 -4.74773 505.673 -1.9209 502.847C0.90536 500.02 4.66328 498.463 8.66065 498.463C12.658 498.463 16.4159 500.02 19.2422 502.846V502.846ZM-5.45074 513.428C-5.45074 521.21 0.879767 527.54 8.66065 527.54C16.4415 527.54 22.7726 521.21 22.7726 513.428C22.7726 505.647 16.4421 499.317 8.66065 499.317C0.879197 499.317 -5.45074 505.647 -5.45074 513.428ZM17.2862 513.429C17.2862 518.192 13.4247 522.054 8.66122 522.054C3.8977 522.054 0.0356991 518.192 0.0356989 513.429C0.0356987 508.665 3.8977 504.803 8.66122 504.803C13.4247 504.803 17.2862 508.665 17.2862 513.429V513.429Z" fill="white" fill-opacity="0.05"/>
<path d="M128.18 737.038C129.54 737.038 130.643 738.141 130.643 739.501C130.643 740.862 129.54 741.964 128.18 741.964C126.82 741.964 125.717 740.861 125.717 739.501C125.717 738.141 126.82 737.038 128.18 737.038Z" fill="white" fill-opacity="0.05"/>
<path d="M111.52 739.501C111.52 748.703 118.979 756.162 128.181 756.162C137.382 756.162 144.842 748.703 144.842 739.501C144.842 730.299 137.382 722.839 128.181 722.839C118.979 722.839 111.52 730.299 111.52 739.501ZM138.762 728.919C141.589 731.745 143.145 735.503 143.145 739.5C143.145 743.498 141.589 747.256 138.762 750.082C135.935 752.909 132.178 754.465 128.18 754.465C124.183 754.465 120.425 752.909 117.599 750.082C114.772 747.256 113.216 743.498 113.216 739.5C113.216 735.503 114.772 731.745 117.599 728.919C120.425 726.092 124.183 724.536 128.18 724.536C132.178 724.536 135.935 726.092 138.762 728.919V728.919ZM114.069 739.5C114.069 747.282 120.399 753.612 128.18 753.612C135.961 753.612 142.292 747.282 142.292 739.5C142.292 731.719 135.962 725.389 128.18 725.389C120.399 725.389 114.069 731.719 114.069 739.5ZM136.806 739.501C136.806 744.264 132.944 748.126 128.181 748.126C123.417 748.126 119.555 744.264 119.555 739.501C119.555 734.737 123.417 730.875 128.181 730.875C132.944 730.875 136.806 734.737 136.806 739.501V739.501Z" fill="white" fill-opacity="0.05"/>
<path d="M198.781 815.754L176.702 816.094L176.361 794.016L178.794 796.374L180.178 797.718L180.179 797.718L194.959 812.048L194.962 812.051L194.962 812.052L196.35 813.397L198.781 815.754Z" fill="white" fill-opacity="0.05"/>
<path d="M45.4068 663.165L67.4726 663.997L66.6406 686.062L64.337 683.578L63.0254 682.163L63.0246 682.163L49.0264 667.068L49.0235 667.065L49.0235 667.064L47.7089 665.647L45.4068 663.165Z" fill="white" fill-opacity="0.05"/>
<path d="M8.66064 613.311C10.0206 613.311 11.1235 614.414 11.1235 615.774C11.1235 617.135 10.0206 618.237 8.66064 618.237C7.3007 618.237 6.19727 617.134 6.19727 615.774C6.19727 614.415 7.30013 613.311 8.66064 613.311Z" fill="white" fill-opacity="0.05"/>
<path d="M-8 615.774C-8 624.976 -0.540473 632.436 8.66122 632.436C17.8629 632.436 25.3224 624.976 25.3224 615.774C25.3224 606.573 17.8629 599.113 8.66122 599.113C-0.540475 599.113 -8 606.572 -8 615.774ZM19.2422 605.192C22.069 608.018 23.6258 611.776 23.6258 615.774C23.6258 619.771 22.069 623.529 19.2422 626.355C16.4159 629.182 12.658 630.739 8.66065 630.739C4.66328 630.739 0.905361 629.182 -1.9209 626.355C-4.74773 623.529 -6.3039 619.771 -6.3039 615.774C-6.3039 611.776 -4.74773 608.018 -1.9209 605.192C0.90536 602.365 4.66328 600.809 8.66065 600.809C12.658 600.809 16.4159 602.365 19.2422 605.192V605.192ZM-5.45074 615.774C-5.45074 623.555 0.879767 629.886 8.66065 629.886C16.4415 629.886 22.7726 623.555 22.7726 615.774C22.7726 607.992 16.4421 601.662 8.66065 601.662C0.879197 601.662 -5.45074 607.992 -5.45074 615.774ZM17.2862 615.774C17.2862 620.538 13.4247 624.399 8.66122 624.399C3.8977 624.399 0.0356991 620.538 0.0356989 615.774C0.0356987 611.011 3.8977 607.149 8.66122 607.149C13.4247 607.149 17.2862 611.011 17.2862 615.774V615.774Z" fill="white" fill-opacity="0.05"/>
<path d="M45.4068 779.53L67.4726 780.362L66.6406 802.428L64.337 799.944L63.0254 798.528L63.0246 798.528L49.0264 783.433L49.0235 783.43L49.0235 783.429L47.7089 782.012L45.4068 779.53Z" fill="white" fill-opacity="0.05"/>
<path d="M8.66064 729.677C10.0206 729.677 11.1235 730.78 11.1235 732.141C11.1235 733.501 10.0206 734.604 8.66064 734.604C7.3007 734.604 6.19727 733.501 6.19727 732.141C6.19727 730.781 7.30013 729.677 8.66064 729.677Z" fill="white" fill-opacity="0.05"/>
<path d="M-8 732.141C-8 741.342 -0.540473 748.802 8.66122 748.802C17.8629 748.802 25.3224 741.342 25.3224 732.141C25.3224 722.939 17.8629 715.479 8.66122 715.479C-0.540475 715.479 -8 722.938 -8 732.141ZM19.2422 721.558C22.069 724.385 23.6258 728.143 23.6258 732.14C23.6258 736.137 22.069 739.895 19.2422 742.722C16.4159 745.548 12.658 747.105 8.66065 747.105C4.66328 747.105 0.905361 745.548 -1.9209 742.722C-4.74773 739.895 -6.3039 736.137 -6.3039 732.14C-6.3039 728.143 -4.74773 724.385 -1.9209 721.558C0.90536 718.732 4.66328 717.175 8.66065 717.175C12.658 717.175 16.4159 718.732 19.2422 721.558V721.558ZM-5.45074 732.14C-5.45074 739.921 0.879767 746.252 8.66065 746.252C16.4415 746.252 22.7726 739.921 22.7726 732.14C22.7726 724.359 16.4421 718.029 8.66065 718.029C0.879197 718.029 -5.45074 724.359 -5.45074 732.14ZM17.2862 732.141C17.2862 736.904 13.4247 740.765 8.66122 740.765C3.8977 740.765 0.0356991 736.904 0.0356989 732.141C0.0356987 727.377 3.8977 723.515 8.66122 723.515C13.4247 723.515 17.2862 727.377 17.2862 732.141V732.141Z" fill="white" fill-opacity="0.05"/>
</g>
</g>
<defs>
<linearGradient id="paint0_linear_6090_167111" x1="187.5" y1="0" x2="187.5" y2="812" gradientUnits="userSpaceOnUse">
<stop stop-color="#872CFE"/>
<stop offset="1" stop-color="#6200E1"/>
</linearGradient>
<clipPath id="clip0_6090_167111">
<rect width="375" height="812" fill="white"/>
</clipPath>
</defs>
</svg>
