<svg width="21" height="21" viewBox="0 0 21 21" fill="none" xmlns="http://www.w3.org/2000/svg">
<path d="M11.5315 18.7885C10.8989 19.2038 10.0883 19.2038 9.46231 18.7885C5.41615 16.1331 1.67971 12.7423 1.09321 8.72515C0.935055 7.62894 0.987774 6.79827 1.17888 6.09016C1.60063 4.53776 2.91201 2.44066 5.1855 2.05937C7.20199 1.72574 9.38982 2.95813 10.7012 5.17779C11.8742 3.02622 13.9039 1.78021 15.8083 2.03214C18.609 2.39981 19.7425 5.80419 19.8149 6.06293C20.0258 6.77785 20.0654 7.57447 19.8874 8.71834C19.268 12.7083 16.0264 15.8514 12 18.5L11.5315 18.7885Z" fill="#2AC9FB" stroke="#2AC9FB" stroke-linecap="round" stroke-linejoin="round"/>
</svg>
